<svg xmlns="http://www.w3.org/2000/svg" xmlns:xlink="http://www.w3.org/1999/xlink" width="1920" height="1080" viewBox="0 0 1920 1080">
  <defs>
    <clipPath id="clip-path">
      <rect id="Rectangle_112" data-name="Rectangle 112" width="1920" height="1080" fill="none"/>
    </clipPath>
    <linearGradient id="linear-gradient" x1="0.581" y1="-0.65" x2="0.441" y2="0.966" gradientUnits="objectBoundingBox">
      <stop offset="0" stop-color="#ff57b3" stop-opacity="0"/>
      <stop offset="0.109" stop-color="#ff57b3"/>
      <stop offset="0.213" stop-color="#8125aa"/>
      <stop offset="0.4" stop-color="#fd0000"/>
      <stop offset="0.501" stop-color="#fe0000"/>
      <stop offset="0.7" stop-color="#0147ba"/>
      <stop offset="0.85" stop-color="#0e8bd9"/>
      <stop offset="1" stop-color="#0ae4fe"/>
    </linearGradient>
  </defs>
  <g id="Mask_Group_4" data-name="Mask Group 4" clip-path="url(#clip-path)">
    <g id="Group_18" data-name="Group 18" transform="matrix(0.899, 0.438, -0.438, 0.899, -552.393, 1512.124)" style="mix-blend-mode: normal;isolation: isolate">
      <path id="Path_2" data-name="Path 2" d="M2474.521-1737.9c-93.223-80.584-199.313-150.566-315.319-208-96.761-47.9-196.386-77.863-296.107-89.04a785.074,785.074,0,0,0-300.381,24.162,876.127,876.127,0,0,0-193.02,80.549c-153.407,86.409-281.852,206.325-406.069,322.294-22.154,20.684-45.062,42.07-67.7,62.879-140.8,129.6-301.425,237.532-477.418,320.79-117.955,55.8-244.092,101.141-376.553,135.432q-80.931,20.952-164.875,36.361c-232.667,43.1-484.023,54.848-747.084,34.9-244.72-18.554-496.31-64.124-747.782-135.446l.536-1.561c251.346,71.287,502.806,116.833,747.4,135.377,262.891,19.931,514.076,8.2,746.577-34.877,193.1-35.431,375.1-93.18,540.956-171.641,175.826-83.18,336.3-191.007,476.97-320.488,22.635-20.8,45.54-42.189,67.692-62.87,124.291-116.039,252.814-236.03,406.411-322.543a877.921,877.921,0,0,1,193.437-80.721,786.9,786.9,0,0,1,301.13-24.222c99.946,11.2,199.785,41.223,296.746,89.228,116.144,57.5,222.361,127.568,315.7,208.25" transform="translate(-4.945 -3.79)" fill="url(#linear-gradient)" style="mix-blend-mode: screen;isolation: isolate"/>
      <path id="Path_3" data-name="Path 3" d="M2792.7-1355.718c-105.24-152.4-219.2-279.953-338.717-379.129-91.337-75.545-197.984-140.1-326.038-197.339-97.051-43.384-194.935-70.1-290.933-79.406-99.79-9.675-198.542-.606-293.5,26.953a895.956,895.956,0,0,0-189.553,80.295C1205-1820.248,1079.02-1705.474,957.184-1594.48c-23.775,21.659-48.359,44.056-72.659,65.8-139.906,125.566-298.984,229.508-472.813,308.939-107.334,49.045-221.234,89.189-340.28,120.007q-94.935,24.577-194.023,41.18c-228.649,39.086-475.369,47.116-733.3,23.866-240.323-21.662-486-69.909-730.21-143.4l.543-1.5c244.089,73.456,489.641,121.679,729.837,143.329,257.771,23.235,504.326,15.211,732.816-23.847,189.982-31.811,369.592-85.994,533.842-161.046,173.666-79.356,332.6-183.2,472.375-308.651,24.3-21.746,48.877-44.14,72.649-65.8,121.9-111.059,247.962-225.9,397.085-310.09a897.875,897.875,0,0,1,189.939-80.455c95.193-27.625,194.179-36.718,294.211-27.02,96.2,9.327,194.279,36.094,291.514,79.561,128.2,57.308,234.982,121.939,326.44,197.588,119.632,99.272,233.694,226.938,339.018,379.456" transform="translate(-7.109 -7.558)" fill="url(#linear-gradient)" style="mix-blend-mode: screen;isolation: isolate"/>
      <path id="Path_4" data-name="Path 4" d="M2780.307-1347c-107.05-157.333-223.755-286.807-346.872-384.827-90.429-71.67-197.436-130.988-336.757-186.677-97.271-38.882-193.368-62.377-285.62-69.833-98.2-7.935-194.682,2.1-286.756,29.808a918.733,918.733,0,0,0-186.086,80.038c-144.349,81.692-267.7,191.277-387,297.255-25.548,22.7-51.969,46.167-78.09,68.908C734.381-1391.037,576.832-1291.2,404.854-1215.584c-162.347,71.379-339.691,122.16-527.111,150.927-225.229,34.572-467.34,38.739-719.608,12.386-236.595-24.714-476.333-75.489-712.558-150.916l.554-1.431c236.106,75.389,475.723,126.138,712.194,150.84,252.112,26.336,494.065,22.172,719.14-12.375,187.265-28.744,364.46-79.48,526.662-150.8,171.82-75.546,329.225-175.293,467.843-296.47,26.116-22.738,52.533-46.2,78.081-68.9,119.358-106.035,242.781-215.678,387.283-297.458a920.589,920.589,0,0,1,186.443-80.189c92.3-27.784,189-37.833,287.43-29.877,92.432,7.469,188.7,31.006,286.143,69.954,139.48,55.752,246.622,115.148,337.183,186.922,123.245,98.119,240.057,227.709,347.193,385.172" transform="translate(-9.271 -11.295)" fill="url(#linear-gradient)" style="mix-blend-mode: screen;isolation: isolate"/>
      <path id="Path_5" data-name="Path 5" d="M2767.919-1338.334c-51.8-77.22-106.4-148.037-162.294-210.484-61.482-68.686-126.327-129.262-192.733-180.042-115.972-88.19-246.616-140.392-347.475-176.017-204.806-72.343-388.092-81.378-560.32-27.595a944.87,944.87,0,0,0-182.619,79.782C1182.9-1773.5,1062.362-1669.159,945.793-1568.25c-27.5,23.807-55.942,48.426-84.068,72.216-137.777,117.181-293.781,213-463.676,284.785-160.614,67.866-335.556,115.111-519.973,140.426-221.432,30.4-458.912,30.805-705.843,1.217-232.449-27.851-466.272-81.26-694.971-158.74l.56-1.366c228.587,77.442,462.29,130.825,694.62,158.662,246.782,29.57,484.112,29.161,705.4-1.214,184.265-25.293,359.063-72.5,519.537-140.307,169.741-71.723,325.6-167.452,463.259-284.528,28.121-23.788,56.556-48.4,84.055-72.207,116.628-100.959,237.226-205.357,376.941-284.622a946.7,946.7,0,0,1,182.947-79.923c172.619-53.889,356.248-44.857,561.421,27.614,100.974,35.666,231.771,87.933,347.924,176.26,66.485,50.841,131.4,111.482,192.946,180.239,55.941,62.5,110.587,133.369,162.421,210.646" transform="translate(-11.434 -14.974)" fill="url(#linear-gradient)" style="mix-blend-mode: screen;isolation: isolate"/>
      <path id="Path_6" data-name="Path 6" d="M2755.53-1329.689c-52.489-79.341-108.024-151.675-165.063-214.991-62.968-69.9-129.625-130.876-198.121-181.238-115.01-84.015-245.608-130.736-358.194-165.359-98.846-30.4-188.657-47.058-274.57-50.936-96.423-4.351-185.947,7.352-273.693,35.773a975.332,975.332,0,0,0-179.15,79.528c-134.611,76.562-252.112,175.608-365.746,271.392-29.658,25-60.326,50.851-90.669,75.758-136.822,113.08-291.277,204.875-459.073,272.834-158.894,64.352-331.437,108.064-512.842,129.919-424.3,51.12-910.653-11.567-1369.464-176.516l.566-1.3c458.571,164.862,944.65,227.52,1368.7,176.43,181.26-21.838,353.661-65.514,512.419-129.81,167.646-67.9,321.964-159.613,458.668-272.594,30.336-24.9,61-50.749,90.656-75.748,113.684-95.829,231.24-194.92,365.974-271.552a976.914,976.914,0,0,1,179.449-79.658c87.939-28.488,177.658-40.214,274.287-35.854,86.056,3.884,176,20.57,274.987,51.009,112.711,34.661,243.466,81.441,358.666,165.593,68.579,50.423,135.31,111.467,198.346,181.44,57.085,63.369,112.663,135.759,165.19,215.156" transform="translate(-13.598 -18.635)" fill="url(#linear-gradient)" style="mix-blend-mode: screen;isolation: isolate"/>
      <path id="Path_7" data-name="Path 7" d="M2743.143-1321.113c-53.166-81.442-109.634-155.293-167.832-219.5-64.445-71.1-132.917-132.478-203.511-182.434-115.506-81.149-245.568-122.309-368.913-154.7-98.8-25.946-186.742-39.57-268.843-41.65-94.853-2.4-182.307,10.331-267.361,38.921A1010.612,1010.612,0,0,0,1291-1801.2c-130.963,74.684-246.472,169.525-358.175,261.245-30.722,25.225-62.488,51.309-93.9,76.4-136.306,108.884-289.274,196.6-454.653,260.7-157.372,61-327.457,101.24-505.529,119.6-213.89,22.051-442.1,14.955-678.292-21.094a3202.638,3202.638,0,0,1-337.053-70.415,3241.48,3241.48,0,0,1-322.768-104l.569-1.234a3240.294,3240.294,0,0,0,322.611,103.949,3201.176,3201.176,0,0,0,336.883,70.38c236.058,36.028,464.131,43.121,677.883,21.083,177.928-18.345,347.875-58.55,505.117-119.5,165.236-64.049,318.071-151.685,454.262-260.473,31.4-25.083,63.163-51.164,93.88-76.386,111.752-91.758,227.308-186.64,358.38-261.386a1012.262,1012.262,0,0,1,175.953-79.392c85.239-28.654,172.872-41.413,267.916-39.005,82.227,2.084,170.286,15.726,269.211,41.7,123.485,32.428,253.7,73.642,369.406,154.93,70.681,50.015,139.23,111.464,203.745,182.639,58.248,64.26,114.757,138.167,167.962,219.668" transform="translate(-15.761 -22.224)" fill="url(#linear-gradient)" style="mix-blend-mode: screen;isolation: isolate"/>
      <path id="Path_8" data-name="Path 8" d="M2730.754-1312.619c-53.831-83.53-111.23-158.9-170.6-224.009-65.913-72.289-136.2-134.07-208.9-183.629-54.715-37.008-116.263-67.2-188.164-92.3-66.95-23.37-134.36-39.273-191.471-51.747-100.008-21.843-183.576-32.168-262.991-32.492-93.268-.38-178.694,13.423-261.151,42.2a1052.159,1052.159,0,0,0-172.216,79.016c-125.7,71.878-237.806,161.378-346.217,247.929-33.211,26.516-67.553,53.934-101.514,80.206C692.1-1342.67,540.675-1258.983,377.466-1198.705c-155.7,57.5-323.382,94.212-498.388,109.106-210.149,17.884-433.721,7.039-664.506-32.234a3113.365,3113.365,0,0,1-328.935-74.709A3093.488,3093.488,0,0,1-1427.683-1304.1l.573-1.168a3091.837,3091.837,0,0,0,313.168,107.505A3111.675,3111.675,0,0,0-785.17-1123.09c230.657,39.25,454.1,50.091,664.116,32.217,174.87-14.883,342.419-51.56,497.991-109.017,163.071-60.227,314.365-143.843,449.68-248.526,33.952-26.266,68.29-53.681,101.5-80.192,108.453-86.586,220.6-176.121,346.4-248.052a1053.6,1053.6,0,0,1,172.459-79.126c82.624-28.836,168.216-42.667,261.664-42.285,79.527.324,163.2,10.659,263.314,32.527,57.155,12.484,124.619,28.4,191.647,51.8,72.02,25.141,133.679,55.386,188.5,92.467,72.792,49.621,143.156,111.471,209.143,183.837,59.42,65.165,116.863,140.59,170.733,224.179" transform="translate(-17.924 -25.733)" fill="url(#linear-gradient)" style="mix-blend-mode: screen;isolation: isolate"/>
      <path id="Path_9" data-name="Path 9" d="M2718.368-1304.231c-54.489-85.6-112.82-162.489-173.373-228.518-67.379-73.471-139.479-135.656-214.293-184.826-125.977-82.119-267.547-111.91-390.354-133.387-99.693-17.434-181.366-24.892-257.034-23.473-91.656,1.72-175.08,16.641-255.048,45.618a1101.36,1101.36,0,0,0-168.748,78.76c-120.108,68.87-228.439,152.905-333.2,234.174-36.047,27.961-73.318,56.874-110.186,84.454C681.571-1330.763,531.7-1251.1,370.669-1194.643Q301.8-1170.5,230.048-1151.929C117.5-1122.792.107-1104.061-120.587-1096.042c-103.9,6.905-212.7,6.554-323.391-1.042A2813.875,2813.875,0,0,1-771.3-1139.4a3023.2,3023.2,0,0,1-320.818-79.013A2946.341,2946.341,0,0,1-1396-1329.536l.574-1.1a2945.288,2945.288,0,0,0,303.729,111.067A3021.6,3021.6,0,0,0-771.028-1140.6a2812.238,2812.238,0,0,0,327.151,42.3c110.621,7.591,219.357,7.941,323.192,1.042,171.8-11.416,336.958-44.565,490.87-98.525,160.9-56.407,310.645-136.006,445.092-236.586,36.857-27.573,74.125-56.483,110.166-84.44,104.8-81.3,213.171-165.36,333.361-234.277a1102.75,1102.75,0,0,1,168.963-78.862c80.118-29.031,163.7-43.983,255.52-45.706,75.763-1.421,157.528,6.043,257.314,23.495,122.948,21.5,264.685,51.329,390.885,133.594,74.908,49.231,147.089,111.485,214.54,185.036,60.6,66.081,118.977,143.023,173.5,228.687" transform="translate(-20.087 -29.137)" fill="url(#linear-gradient)" style="mix-blend-mode: screen;isolation: isolate"/>
      <path id="Path_10" data-name="Path 10" d="M2705.98-1295.982c-55.136-87.672-114.4-166.074-176.142-233.029-68.84-74.65-142.752-137.236-219.685-186.024-129.667-81.535-275.017-106.1-401.079-122.731-100.537-13.261-177.941-17.763-250.98-14.6-90.006,3.9-171.469,19.989-249.036,49.185a1160.013,1160.013,0,0,0-165.278,78.505c-114.116,65.622-218.237,144.047-318.929,219.888-39.292,29.594-79.92,60.2-120.121,89.231C671.038-1319,522.714-1243.349,363.879-1190.713c-152.38,50.5-315.265,80.135-484.129,88.087-398.814,18.783-852.255-73.246-1244.058-252.486l.573-1.038C-972.124-1177-518.915-1085.013-120.317-1103.784c168.737-7.947,331.5-37.56,483.759-88.019,158.7-52.593,306.909-128.18,440.494-224.661,40.19-29.025,80.814-59.625,120.1-89.216,100.723-75.866,204.875-154.313,319.061-219.975a1161.365,1161.365,0,0,1,165.469-78.6c77.711-29.251,159.31-45.368,249.465-49.274,73.125-3.167,150.6,1.339,251.226,14.61,126.2,16.647,271.726,41.247,401.622,122.927,77.027,48.847,151.024,111.5,219.936,186.232,61.791,67.006,121.1,145.466,176.271,233.2" transform="translate(-22.25 -32.399)" fill="url(#linear-gradient)" style="mix-blend-mode: screen;isolation: isolate"/>
      <path id="Path_11" data-name="Path 11" d="M2693.594-1287.912c-55.781-89.731-115.976-169.65-178.915-237.537-70.295-75.824-146.022-138.813-225.079-187.223-134.172-81.454-282.914-100.561-411.8-112.076-67.155-6-155.677-12.089-244.856-5.874-88.3,6.154-167.812,23.458-243.094,52.9a1231.591,1231.591,0,0,0-161.808,78.25c-107.654,62.089-207.034,134.731-303.142,204.981-43.03,31.453-87.526,63.977-131.565,94.629C660.494-1307.4,513.724-1235.771,357.1-1186.949c-150.736,46.988-311.228,73.083-477.013,77.56-99.834,2.7-204.179-1.683-310.133-13.019a2710.809,2710.809,0,0,1-312.98-52.56,2841.6,2841.6,0,0,1-304.6-87.639,2658.648,2658.648,0,0,1-284.993-118.26l.571-.971a2657.255,2657.255,0,0,0,284.857,118.2,2840.206,2840.206,0,0,0,304.459,87.6A2709.318,2709.318,0,0,0-429.906-1123.5c105.9,11.33,210.182,15.709,309.957,13.013,165.663-4.475,326.034-30.55,476.656-77.5,156.5-48.784,303.155-120.362,435.89-212.747,44.029-30.643,88.517-63.164,131.542-94.611,96.134-70.269,195.541-142.931,303.252-205.054a1232.81,1232.81,0,0,1,161.976-78.33c75.408-29.493,155.049-46.826,243.482-52.99,89.275-6.222,177.863-.127,245.068,5.877,129.034,11.528,277.951,30.66,412.358,112.258,79.152,48.467,154.965,111.526,225.331,187.427,62.988,67.94,123.226,147.916,179.042,237.706" transform="translate(-24.414 -35.483)" fill="url(#linear-gradient)" style="mix-blend-mode: screen;isolation: isolate"/>
      <path id="Path_12" data-name="Path 12" d="M2681.208-1280.132c-56.418-91.784-117.546-173.222-181.687-242.05-71.748-76.992-149.289-140.385-230.474-188.422-61.76-36.229-130.616-61.775-210.5-78.1-74.776-15.279-149.144-20.364-212.029-23.325-70.525-3.319-154.033-5.594-238.679,2.7-86.516,8.479-164.1,27.047-237.2,56.769a1319.816,1319.816,0,0,0-158.337,77.994c-100.622,58.211-194.621,124.863-285.522,189.319-47.366,33.585-96.345,68.315-144.844,100.781a1559,1559,0,0,1-431.608,201q-23.45,6.838-47.213,12.989C168-1135.5,26.066-1117.339-119.574-1116.443c-97.808.6-199.921-5.785-303.5-18.985a2659.014,2659.014,0,0,1-305.808-57.683,2750.014,2750.014,0,0,1-296.5-91.965,2518.3,2518.3,0,0,1-275.555-121.837l.567-.9a2517.217,2517.217,0,0,0,275.424,121.778,2748.449,2748.449,0,0,0,296.362,91.925,2657.8,2657.8,0,0,0,305.664,57.656c103.524,13.192,205.578,19.576,303.331,18.976,162.584-1,320.57-23.535,469.561-66.97A1557.811,1557.811,0,0,0,781.256-1385.3c48.486-32.458,97.458-67.183,144.818-100.764,90.924-64.472,184.943-131.139,285.612-189.377a1321.046,1321.046,0,0,1,158.482-78.065c73.211-29.766,150.912-48.363,237.551-56.855,84.726-8.3,168.291-6.028,238.861-2.706,62.933,2.961,137.361,8.051,212.22,23.348,80.018,16.35,148.993,41.943,210.871,78.24,81.279,48.092,158.905,111.553,230.725,188.622,64.189,68.879,125.359,150.372,181.811,242.214" transform="translate(-26.577 -38.275)" fill="url(#linear-gradient)" style="mix-blend-mode: screen;isolation: isolate"/>
      <path id="Path_13" data-name="Path 13" d="M2668.822-1272.809c-57.051-93.83-119.11-176.785-184.458-246.56-73.2-78.157-152.557-141.956-235.869-189.622-138.538-78.586-290.1-90.067-433.256-90.768-69.42-.34-151.326.718-232.47,11.135-84.645,10.867-160.318,30.748-231.343,60.78a1431.364,1431.364,0,0,0-154.864,77.738c-92.892,53.908-180.714,114.309-265.647,172.723-52.435,36.063-106.656,73.354-160.376,107.867a1527.46,1527.46,0,0,1-426.974,189.1c-5.644,1.53-11.325,3.033-16.993,4.5-142.436,36.874-292.3,54.347-445.808,51.964-95.788-1.487-195.664-9.876-296.856-24.932a2607.617,2607.617,0,0,1-298.638-62.808c-196.852-53.48-388.6-130.149-554.51-221.721l.561-.84c165.833,91.529,357.493,168.164,554.258,221.62a2606.51,2606.51,0,0,0,298.5,62.779c101.14,15.049,200.966,23.434,296.7,24.92,159.5,2.478,315.1-16.516,462.473-56.423a1526.353,1526.353,0,0,0,426.659-188.96c53.707-34.5,107.92-71.79,160.349-107.849,84.949-58.424,172.79-118.837,265.717-172.768a1432.874,1432.874,0,0,1,154.989-77.8c71.122-30.073,146.894-49.982,231.648-60.863,81.213-10.426,163.168-11.485,232.628-11.145,143.311.7,295.057,12.2,433.824,90.918,83.407,47.72,162.847,111.585,236.117,189.817,65.4,69.825,127.5,152.834,184.581,246.723" transform="translate(-28.741 -40.612)" fill="url(#linear-gradient)" style="mix-blend-mode: screen;isolation: isolate"/>
      <path id="Path_14" data-name="Path 14" d="M2656.436-1266.267c-57.679-95.875-120.672-180.348-187.229-251.073-74.647-79.32-155.82-143.522-241.265-190.821-65.729-36.081-138.171-59.492-221.464-71.569-81.942-11.88-161.963-10.808-222.522-8.547-144.224,5.385-297.9,16.335-451.739,84.361a1549.443,1549.443,0,0,0-151.4,77.483c-84.3,49.081-164.969,102.909-242.982,154.965-58.411,38.975-118.81,79.277-178.7,116.114a1496.123,1496.123,0,0,1-409.5,173.952c-4.278,1.108-8.546,2.193-12.837,3.264-145.866,36.413-299.186,51.852-455.7,45.892-375.441-14.3-793.629-137.086-1118.653-328.453l.552-.775c324.88,191.281,742.877,314.012,1118.144,328.3,156.41,5.957,309.626-9.473,455.392-45.86a1495.447,1495.447,0,0,0,422.035-177.09c59.869-36.828,120.26-77.125,178.663-116.094,78.027-52.064,158.71-105.9,243.037-155a1550.485,1550.485,0,0,1,151.5-77.535c154.009-68.1,307.808-79.064,452.141-84.453,60.606-2.263,140.693-3.335,222.724,8.558,83.424,12.1,155.986,35.546,221.83,71.69,85.538,47.351,166.792,111.617,241.51,191.011,66.6,70.774,129.637,155.3,187.348,251.23" transform="translate(-30.904 -42.166)" fill="url(#linear-gradient)" style="mix-blend-mode: screen;isolation: isolate"/>
      <path id="Path_15" data-name="Path 15" d="M2644.051-1260.142c-58.3-97.914-122.23-183.906-190-255.585-76.094-80.481-159.083-145.086-246.661-192.022-67.824-36.054-142.062-58.456-226.955-68.486-66.016-7.8-138.39-8.109-227.765-.976-140.4,11.206-290,27.913-439.662,96.807-48.906,22.514-98.675,48.5-147.922,77.226-74.625,43.6-146.9,90.425-216.8,135.711C879.739-1423.057,815-1381.11,747.748-1341.609a1466.767,1466.767,0,0,1-417.691,165.35c-144.262,32.871-295.2,44.748-448.61,35.3-182.067-11.211-378.432-49.191-567.864-109.834-188.7-60.407-368.317-142.57-519.436-237.608l.54-.711c151.051,94.994,330.591,177.123,519.211,237.5,189.353,60.617,385.632,98.58,567.613,109.786,153.314,9.44,304.15-2.429,448.315-35.278a1465.988,1465.988,0,0,0,417.407-165.239c67.228-39.49,131.962-81.43,200.5-125.835,69.909-45.292,142.2-92.127,216.84-135.734,49.274-28.746,99.07-54.744,148.006-77.271,149.811-68.964,299.514-85.683,440.008-96.9,89.444-7.14,161.884-6.829,227.971.979,85.021,10.044,159.375,32.484,227.312,68.6,87.67,46.985,170.74,111.651,246.9,192.2,67.816,71.727,131.78,157.769,190.115,255.738" transform="translate(-33.068 -43.303)" fill="url(#linear-gradient)" style="mix-blend-mode: screen;isolation: isolate"/>
      <path id="Path_16" data-name="Path 16" d="M2631.664-1254.292c-58.925-99.95-123.784-187.46-192.773-260.1-77.539-81.64-162.344-146.65-252.059-193.224-70-36.056-146.042-57.494-232.477-65.538-69.128-6.433-143.158-4.295-232.977,6.729-63.966,7.852-139.4,18.215-213.91,35.557-78.413,18.255-148.307,42.36-213.676,73.7-47.543,22.8-96.142,48.691-144.448,76.97-63.562,37.263-125.863,76.521-186.112,114.487-77.514,48.846-150.73,94.981-226.876,137.569a1435.642,1435.642,0,0,1-341.288,136.859q-35.605,9.217-71.756,16.647c-142.669,29.317-291.217,37.625-441.52,24.692-178.6-15.367-370.187-57.156-554.051-120.85-184.575-63.941-358.13-148.861-501.9-245.582l.526-.646c143.706,96.677,317.187,181.561,501.688,245.476,183.79,63.668,375.3,105.44,553.817,120.8,150.211,12.924,298.666,4.621,441.244-24.676A1437.085,1437.085,0,0,0,735.89-1328.826c76.127-42.576,149.333-88.706,226.837-137.545,60.255-37.968,122.563-77.231,186.138-114.5,48.327-28.292,96.949-54.2,144.515-77.005,65.429-31.37,135.389-55.5,213.867-73.765,74.553-17.353,150.022-27.722,214.014-35.576,89.89-11.033,163.984-13.172,233.183-6.732,86.561,8.056,162.718,29.526,232.825,65.639,89.8,46.621,174.687,111.689,252.292,193.4,69.031,72.681,133.928,160.239,192.885,260.242" transform="translate(-35.232 -44.165)" fill="url(#linear-gradient)" style="mix-blend-mode: screen;isolation: isolate"/>
    </g>
  </g>
</svg>
